<svg width="20" height="20" viewBox="0 0 20 20" fill="none" xmlns="http://www.w3.org/2000/svg">
<path d="M9.58073 18.1251C4.8724 18.1251 1.03906 14.2917 1.03906 9.58342C1.03906 4.87508 4.8724 1.04175 9.58073 1.04175C14.2891 1.04175 18.1224 4.87508 18.1224 9.58342C18.1224 14.2917 14.2891 18.1251 9.58073 18.1251ZM9.58073 2.29175C5.55573 2.29175 2.28906 5.56675 2.28906 9.58342C2.28906 13.6001 5.55573 16.8751 9.58073 16.8751C13.6057 16.8751 16.8724 13.6001 16.8724 9.58342C16.8724 5.56675 13.6057 2.29175 9.58073 2.29175Z" fill="#292D32"/>
<path d="M18.3365 18.9583C18.1781 18.9583 18.0198 18.9 17.8948 18.775L16.2281 17.1083C15.9865 16.8666 15.9865 16.4666 16.2281 16.225C16.4698 15.9833 16.8698 15.9833 17.1115 16.225L18.7781 17.8916C19.0198 18.1333 19.0198 18.5333 18.7781 18.775C18.6531 18.9 18.4948 18.9583 18.3365 18.9583Z" fill="#292D32"/>
</svg>
